<svg version="1.1" id="Layer_1" xmlns="http://www.w3.org/2000/svg" xmlns:xlink="http://www.w3.org/1999/xlink" x="0px" y="0px"
	 viewBox="102 13.4 801 814.5" style="enable-background:new 102 13.4 801 814.5;" xml:space="preserve">
<style type="text/css">
	.st0{fill:#D6729E;}
	.st1{fill:#EFA1C6;}
	.st2{font-family:'MarkerFelt-Thin';}
	.st3{font-size:34px;}
	.st4{fill:#362063;}
	.st5{font-family:'MarkerFelt-Wide';}
	.st6{font-size:37px;}
</style>
<g id="petal_1" onclick="top.goToLevel(1)">
	<polygon class="st0" points="455,282.8 449.5,274.8 445.4,270.3 440.7,265.5 434.6,259.7 426.6,252.1 421.5,247.2 415,240.7
		408.1,233.3 401.9,226.2 396.6,219.7 391.4,212.7 386.2,205 379.7,194.1 374.6,183.7 372.1,177.2 370.1,171.2 367.4,160.3
		366.2,153.3 365.3,140.8 365.6,131.4 366.5,122.3 368.6,111.7 371.5,101.7 374.6,93.2 378.8,84.3 383.4,76 387.5,69.5 392.8,62.3
		399.7,54.1 405.1,48.5 411.4,42.6 419.5,36.5 427.7,31.9 435.5,28.5 444,25.6 451.5,23.7 459.4,22.2 470.4,21.2 480.7,21
		488.5,21.7 499.5,23.4 507.2,25.3 518.5,29 526.7,32.6 534.3,36.5 541.5,40.9 550.1,47.1 557.2,53.1 564.7,60.2 570,66.2 576,74.6
		579.6,80.7 583,88.3 585.9,96.1 587.9,103.8 589.3,111.8 590.2,123.3 590.2,132.6 589.6,142.3 588.3,151.9 586.7,160.4
		584.6,169.2 582.4,177.2 579.6,185.9 576,195.7 572.3,204.8 568.7,212.8 565.1,220.4 561,228.3 556,237.6 552.2,245.7 549.2,253.4
		546.4,262.2 544.1,271.8 542.7,279.6 542.2,283.7 535.9,282.8 528.4,279.6 518.5,279.6 510.9,279.6 501.4,279.6 494.4,279.6
		484.9,279.6 477.8,282.8 469.4,283.7 462.9,286.8 457.2,291 	"/>
	<path class="st1" d="M385.2,171.2c0,0-39.3-98.2,75.8-130.6c83.6-23.6,118.1,64,105,94.2c-13,30.2-9.2-83.1-104.1-70.4
		C382.1,74.9,385.2,171.2,385.2,171.2z"/>
	<text transform="matrix(1 0 0 1 444.5569 187.1525)" class="st2 st3">print</text>
	<text transform="matrix(1 0 0 1 387.5083 131.4345)" class="st4 st5 st6">1 уровень</text>
</g>
<g id="petal_2" onclick="top.goToLevel(2)">
	<polygon class="st0" points="596.9,312.8 600.4,307.3 602.9,299.8 603.3,291 604.4,282.8 603.4,275.1 604.4,268.8 604.4,260.3
		605,252.1 606.7,244.5 609.2,235.9 611.3,229.9 613.8,223.4 617,216.2 620.6,208.9 624.3,202.2 628.1,195.8 631.8,190 636.8,182.9
		641.1,177.2 644.4,173 647.4,169.5 651.8,164.7 656.4,159.9 660.4,156 666.3,150.7 672.6,145.5 680.1,139.9 685.9,136.1
		693.7,131.4 702,127.2 710,123.8 719.2,121.1 730.4,119 738.9,119 746.4,119 753.9,119 763,120.5 771.1,122.5 780.8,125.8
		788.7,129.3 794.8,132.5 801.5,136.6 807.8,140.9 814.5,146.3 821.7,153 827.7,159.5 832.5,165.3 836.8,171.2 841.9,179.1
		845.6,186 849.7,194.4 853,202.6 855.8,210.9 857.9,218.4 860.3,229.9 861.6,238.4 862.7,250.2 863.1,261.8 863.1,270.3
		861.8,283.3 860.1,293.8 857.6,304.2 854.9,312.8 851.4,321.5 847.9,328.6 842.9,337.2 838.2,343.8 832.9,350.4 826,357.4
		819.8,362.9 811.5,369.1 804.6,373.4 794.7,378.4 786.9,381.6 778.3,384.5 767.1,387.1 760.4,388.2 749.4,389.1 742.1,389.1
		730,387.6 719.6,385.6 711.4,384 692.5,380.5 679.5,378.6 669.4,377.6 659.4,377.2 647.4,377.9 641.4,379.3 639.9,373.3
		635.9,364.3 632.4,356.3 628.4,349.3 624.3,341.3 620.4,336.8 615.4,330.3 610.4,324.8 604.4,319.3 	"/>
	<path class="st1" d="M716.1,132.4c0,0,105.1-20.3,132.4,121.6c19.9,103.2-70.3,130.3-101.1,107.5c-30.8-22.9,84,1,76.2-112.5
		C817,153.5,716.1,132.4,716.1,132.4z"/>
	<text transform="matrix(1 0 0 1 684.7386 293.5713)" class="st2 st3">input </text>
	<text transform="matrix(1 0 0 1 644.4399 229.9396)" class="st4 st5 st6">2 уровень</text>
</g>
<image style="overflow:visible;enable-background:new    ;" width="343" height="343" xlink:href="8258215310FDA537.png"  transform="matrix(0.8585 0 0 0.8585 359.9868 272.2194)">
</image>
<g id="petal_2" onclick="top.goToLevel(3)">
	<polygon class="st0" points="619.4,516.3 622.4,521.8 624.9,529.8 624.9,539 626.4,545.3 628.9,553.3 631.3,561.2 634.5,569
		638.9,578.6 642.6,585.9 646.5,593.1 651.4,601.8 656.4,610 660.6,616.5 666.7,625.4 672,632.6 677.7,640 684,647.6 689.2,653.5
		694.6,659.1 701.1,665.2 708.1,671 716.7,677 724.7,681.2 732.3,684.2 741,686.7 750,688.4 760.9,689.3 769.4,689.3 779.4,688.6
		788.9,687.1 799.4,684.8 807.6,682.3 815.3,679.5 821.9,676.7 829.3,673.1 834.7,670.1 842.2,665.5 847.5,661.8 853.8,656.8
		859.5,651.9 864.5,646.9 869.5,641.5 873.9,636 877.3,631.4 882.3,623.5 886.4,615.7 890.1,607.4 893.6,597.2 896,587.6
		897.6,578.6 898.8,567.8 898.8,558.3 898.8,550.8 897.8,540.3 896.1,529.4 892.7,516.3 890,508.8 886.4,500.6 883.4,494.8
		876.6,484.1 870,475.7 861.1,466.6 852.1,459.2 841.5,452.1 830.9,446.3 816.3,440.2 804,436.4 791.9,433.8 776.4,431.8
		763.6,431.3 752.3,431.6 741,432.3 731.9,433.2 720.3,434.5 707.9,436.1 698.3,437.3 688.3,438.7 677.3,440 665.9,441 659.4,441.4
		651.4,441.4 651.4,448.3 649.4,456.8 647.9,464.8 644.4,472.3 641.9,480.4 638.4,485.8 634.9,493.3 630.4,499.8 625.9,505.6
		619.4,511.3 	"/>
	<path class="st1" d="M857.8,480.4c0,0,72.5,83-13,166.6c-62.2,60.7-137.7,14.8-140.7-17.9c-3-32.7,51.2,54.1,128.5-2.5
		C897.6,579,857.8,480.4,857.8,480.4z"/>

	<text transform="matrix(1 0 0 1 716.6668 570.9677)" class="st2 st3">Quiz </text>
	<text transform="matrix(1 0 0 1 675.4399 504.9396)" class="st4 st5 st6">3 уровень</text>

</g>
<g id="petal_4" onclick="top.goToLevel(4)">

		<polygon class="st0" points="470.1,561.3 470.1,566.8 467,573.7 464.2,579.6 457.2,589.1 451.9,594.8 445,603.1 438.8,611.2
			433.9,618 428.8,625.6 424.3,633 419.2,642 415.9,648.6 412.2,656.5 408.1,666.8 405.3,675 403,683.7 401.1,693.8 400.3,700.9
			400,710.8 400.8,719.9 402.5,728.8 405.6,738.4 408.1,744 412.9,752.5 418.5,759.9 422.6,764.8 427.8,770.5 435.1,777.8
			440.7,783 447.3,788.6 455.4,794.5 463,799.4 470.1,803.2 480.7,808 490.6,811.2 499.5,813.2 507.2,814.3 518.5,815.1
			526.4,815.1 536,815.1 545,813.1 557.6,811 565.7,809.2 575.3,806.2 584.7,802.5 593.1,798.7 601.4,794.3 610.1,788.9
			618.7,782.9 624.3,778.5 632.6,771 639.6,763.5 645.9,755.5 651.5,746.6 656.7,736 660.9,723.1 662.9,710.7 663.3,697.9
			662.5,688.2 661,679.9 658,668.3 655.8,661.9 652.2,653.2 647.4,643.8 642.9,636.3 639.9,631.8 633.6,623.5 628.3,617.4
			622.7,611.5 612.4,602.1 605.9,596.7 599.5,591.7 590,584.7 580.7,578.1 571.8,571.5 562.7,564.2 559.6,561.3 555.4,556.3
			549.9,556.3 538.9,561.3 525.4,563.7 509.9,563.7 494.4,563.7 480.7,561.3 474.4,561.3 470.2,556.3 		"/>
		<path class="st1" d="M638.7,645.8c0,0,52.7,108-75.2,153.2c-93,32.8-153.7-67.5-138.6-100.8c15.1-33.3,22.3,100.5,127.5,78.2
			C640.9,757.6,638.7,645.8,638.7,645.8z"/>
	<text transform="matrix(1 0 0 1 445.1646 657.3894)" class="st4 st5 st6">4 уровень</text>
	<text transform="matrix(1 0 0 1 519.6533 705.1433)"><tspan x="0" y="0" class="st5 st6">if</tspan><tspan x="-51.4" y="44.4" class="st5 st6">(part 1)</tspan></text>
</g>
<g id="petal_5" onclick="top.goToLevel(5)">

		<polygon class="st0" points="403.9,525 399.7,530 396.3,537.1 394.7,545.8 392.5,553.7 392.5,561.5 390.7,567.6 389.6,576
			387.9,584.1 385.2,591.4 381.6,599.6 378.7,605.3 375.3,611.4 371.2,618.1 366.7,624.9 362.2,631.1 357.6,636.9 353.1,642.2
			347.2,648.5 342.2,653.6 338.4,657.3 334.9,660.4 330,664.6 324.7,668.8 320.3,672.1 313.7,676.6 306.8,680.9 298.6,685.4
			292.4,688.5 284,692 275.2,695.2 266.9,697.4 257.4,699 246.1,699.5 237.6,698.4 230.2,697.4 222.7,696.4 213.9,693.8
			206.1,690.7 197,686.1 189.6,681.7 184,677.7 177.8,672.7 172.2,667.6 166.3,661.4 160,653.8 154.9,646.6 150.9,640.2
			147.5,633.8 143.5,625.2 140.6,618 137.7,609.1 135.5,600.5 133.9,591.9 132.8,584.1 131.9,572.4 131.7,563.9 132.2,552
			133.3,540.5 134.4,532 137.4,519.3 140.5,509.2 144.3,499.1 148.2,491 152.8,482.9 157.1,476.3 163.3,468.4 168.8,462.5
			174.9,456.7 182.7,450.6 189.6,445.9 198.6,441 206,437.6 216.4,433.9 224.6,431.8 233.5,430.1 245,428.9 251.8,428.7
			262.8,429.3 270,430.2 281.8,433.4 291.9,436.6 299.8,439.3 318,445.3 330.6,448.9 340.5,451.2 350.4,452.9 362.4,453.8
			368.6,453.2 369.3,459.4 372,468.8 374.5,477.2 377.5,484.7 380.5,493.1 383.8,498.1 387.9,505.2 392.1,511.3 397.3,517.6 		"/>
		<path class="st1" d="M262,688.1c0,0-106.8,6.3-115.3-138c-6.1-104.9,86.8-119.9,114.4-93.2c27.6,26.7-83.2-12.1-90.3,101.5
			C164.7,653.9,262,688.1,262,688.1z"/>
	<text transform="matrix(1 0 0 1 184.9595 547.6909)" class="st4 st5 st6">5 уровень</text>
	<text transform="matrix(1 0 0 1 257.3657 595.0748)"><tspan x="0" y="0" class="st5 st6">if</tspan><tspan x="-51.4" y="44.4" class="st5 st6">(part 2)</tspan></text>
</g>
<g id="petal_6" >
	<polygon class="st0" points="393.7,327.3 390.7,321.8 388.2,313.8 388.1,304.6 386.6,298.3 384.1,290.3 381.7,282.5 378.4,274.7
		373.9,265.1 370.2,257.7 366.4,250.6 361.3,241.9 356.3,233.8 352.1,227.3 346,218.4 340.7,211.2 335,203.8 328.6,196.2
		323.4,190.4 317.9,184.8 311.5,178.7 304.4,172.9 295.8,167 287.8,162.8 280.2,159.8 271.5,157.4 262.4,155.8 251.5,154.9
		243.1,154.9 233,155.7 223.6,157.1 213.1,159.5 204.9,162 197.2,164.8 190.6,167.7 183.2,171.3 177.8,174.3 170.4,179 165.1,182.7
		158.7,187.7 153.1,192.7 148.1,197.6 143.2,203.1 138.7,208.6 135.4,213.2 130.4,221.1 126.3,228.9 122.6,237.2 119.2,247.4
		116.8,257 115.3,266.1 114.1,276.9 114.1,286.4 114.2,293.9 115.2,304.4 117,315.3 120.4,328.3 123.1,335.9 126.7,344.1
		129.8,349.8 136.6,360.5 143.3,368.8 152.2,377.9 161.2,385.3 171.8,392.4 182.5,398.1 197.2,404.2 209.4,407.9 221.5,410.5
		237.1,412.4 249.8,412.8 261.1,412.5 272.5,411.7 281.6,410.9 293.2,409.5 305.6,407.9 315.2,406.6 325.1,405.2 336.1,403.8
		347.5,402.7 354,402.4 362,402.3 361.9,395.4 364,386.9 365.4,378.9 368.9,371.4 371.4,363.3 374.8,357.8 378.3,350.3 382.8,343.8
		387.3,338 393.7,332.3 	"/>
	<path class="st1" d="M155.5,364.1c0,0-72.8-82.8,12.4-166.6c61.9-61,137.6-15.4,140.8,17.4c3.1,32.7-51.4-53.9-128.5,3
		C115.3,265.7,155.5,364.1,155.5,364.1z"/>

    <text transform="matrix(1 0 0 1 166.4035 272.9924)" class="st4 st5 st6">6 уровень</text>
	<text transform="matrix(1 0 0 1 227.6025 329.8416)" class="st5 st6">list</text>
</g>
</svg>
